<svg xmlns="http://www.w3.org/2000/svg" width="14.432" height="16.494" viewBox="0 0 14.432 16.494">
  <path id="Icon_metro-files-empty" data-name="Icon metro-files-empty" d="M18.251,7.68a14.6,14.6,0,0,0-1.4-1.606,14.609,14.609,0,0,0-1.606-1.4,2.569,2.569,0,0,0-1.465-.68H7.849A1.29,1.29,0,0,0,6.56,5.278V17.133a1.29,1.29,0,0,0,1.289,1.289h9.793a1.29,1.29,0,0,0,1.289-1.289V9.144a2.569,2.569,0,0,0-.68-1.465ZM16.118,6.8a14.059,14.059,0,0,1,1.169,1.311h-2.48V5.634A14.048,14.048,0,0,1,16.118,6.8ZM17.9,17.133a.261.261,0,0,1-.258.258H7.849a.261.261,0,0,1-.258-.258V5.278a.261.261,0,0,1,.258-.258h5.927V8.629a.515.515,0,0,0,.515.515H17.9ZM13.179,2.608a2.569,2.569,0,0,0-1.465-.68H5.787A1.29,1.29,0,0,0,4.5,3.217V15.072A1.291,1.291,0,0,0,5.53,16.334V3.217a.261.261,0,0,1,.258-.258H13.63c-.155-.128-.306-.246-.45-.351Z" transform="translate(-4.499 -1.928)" fill="#8e2835"/>
</svg>
