<svg xmlns="http://www.w3.org/2000/svg" width="11.905" height="17.316" viewBox="0 0 11.905 17.316">
  <path id="Icon_awesome-microphone" data-name="Icon awesome-microphone" d="M5.953,11.905A3.247,3.247,0,0,0,9.2,8.658V3.247a3.247,3.247,0,0,0-6.494,0V8.658A3.247,3.247,0,0,0,5.953,11.905Zm5.411-5.411h-.541a.541.541,0,0,0-.541.541V8.658A4.334,4.334,0,0,1,5.52,12.966a4.461,4.461,0,0,1-3.9-4.5V7.035a.541.541,0,0,0-.541-.541H.541A.541.541,0,0,0,0,7.035V8.393a6.139,6.139,0,0,0,5.141,6.145v1.155H3.247a.541.541,0,0,0-.541.541v.541a.541.541,0,0,0,.541.541H8.658a.541.541,0,0,0,.541-.541v-.541a.541.541,0,0,0-.541-.541H6.764V14.551a5.958,5.958,0,0,0,5.141-5.893V7.035A.541.541,0,0,0,11.364,6.494Z" fill="#8e2835"/>
</svg>
