<svg xmlns="http://www.w3.org/2000/svg" width="23.439" height="23.439" viewBox="0 0 23.439 23.439">
  <path id="Icon_material-library-add" data-name="Icon material-library-add" d="M5.344,7.688H3V24.1a2.351,2.351,0,0,0,2.344,2.344H21.751V24.1H5.344ZM24.1,3H10.032A2.351,2.351,0,0,0,7.688,5.344V19.407a2.351,2.351,0,0,0,2.344,2.344H24.1a2.351,2.351,0,0,0,2.344-2.344V5.344A2.351,2.351,0,0,0,24.1,3ZM22.923,13.548H18.235v4.688H15.891V13.548H11.2V11.2h4.688V6.516h2.344V11.2h4.688Z" transform="translate(-3 -3)"/>
</svg>
