<svg xmlns="http://www.w3.org/2000/svg" width="276.997" height="210.769" viewBox="0 0 276.997 210.769">
  <g id="Taking_notes-pana" data-name="Taking notes-pana" transform="translate(-61.138 -154.471)">
    <g id="freepik--character-2--inject-164" transform="translate(178.26 154.471)">
      <path id="Path_239" data-name="Path 239" d="M283.435,307.7l-3.346,31.111s-6.52-9.852-10.93-5.462c-4.2,4.19-11.629,34.741-11.629,34.741s-.1,9.963,5.2,12.6c16.987,8.462,35.916-7.439,35.916-7.439l-2.7-89.048h0a35.7,35.7,0,0,0-12.507,23.5Z" transform="translate(-238.874 -194.51)" fill="#8e2835"/>
      <path id="Path_240" data-name="Path 240" d="M359.27,252.563l-29.39-2.344c-.18-3.457.062-16.71.062-16.71s-12.23-1.9-12.375-14.125,1.963-40.307,1.963-40.307h0a42.478,42.478,0,0,1,42.7,5.372l1.811,1.383Z" transform="translate(-257.401 -161)" fill="#b78876"/>
      <path id="Path_241" data-name="Path 241" d="M335.428,257.078a28.443,28.443,0,0,0,15.943-4.528s-3.768,8.794-15.971,7.695Z" transform="translate(-262.907 -184.742)" fill="#aa6550"/>
      <path id="Path_242" data-name="Path 242" d="M382.407,208.549c.207-.09,8.4-2.482,8.13,5.877s-8.6,6.367-8.608,6.125S382.407,208.549,382.407,208.549Z" transform="translate(-277.268 -171.043)" fill="#b78876"/>
      <path id="Path_243" data-name="Path 243" d="M385.757,218.7c.041,0,.145.1.387.228a1.438,1.438,0,0,0,1.085.055c.9-.3,1.687-1.673,1.777-3.18a4.88,4.88,0,0,0-.346-2.074,1.673,1.673,0,0,0-1.058-1.155.733.733,0,0,0-.871.373c-.118.228-.076.394-.118.408s-.173-.145-.1-.491a.982.982,0,0,1,.346-.512,1.127,1.127,0,0,1,.809-.187,2.074,2.074,0,0,1,1.486,1.383,5.054,5.054,0,0,1,.429,2.344c-.111,1.68-1.023,3.229-2.24,3.54a1.549,1.549,0,0,1-1.327-.263C385.771,218.9,385.729,218.712,385.757,218.7Z" transform="translate(-278.447 -172.274)" fill="#aa6550"/>
      <path id="Path_244" data-name="Path 244" d="M324.31,207.294A1.749,1.749,0,0,0,326,209.057a1.666,1.666,0,0,0,1.8-1.576,1.749,1.749,0,0,0-1.68-1.763,1.68,1.68,0,0,0-1.8,1.576Z" transform="translate(-259.484 -170.286)" fill="#263238"/>
      <path id="Path_245" data-name="Path 245" d="M323.748,204.67c.214.228,1.542-.754,3.415-.747s3.256.947,3.457.691c.1-.1-.124-.519-.691-.954a4.8,4.8,0,0,0-2.765-.85,4.612,4.612,0,0,0-2.724.878C323.838,204.158,323.644,204.566,323.748,204.67Z" transform="translate(-259.303 -169.39)" fill="#263238"/>
      <path id="Path_246" data-name="Path 246" d="M350.93,208.294a1.749,1.749,0,0,0,1.68,1.763,1.68,1.68,0,0,0,1.8-1.576,1.756,1.756,0,0,0-1.687-1.763,1.673,1.673,0,0,0-1.8,1.576Z" transform="translate(-267.7 -170.595)" fill="#263238"/>
      <path id="Path_247" data-name="Path 247" d="M350.458,205.17c.221.228,1.542-.754,3.422-.747s3.256.947,3.457.691c.1-.1-.118-.512-.691-.947a4.84,4.84,0,0,0-2.765-.857,4.646,4.646,0,0,0-2.724.878C350.555,204.665,350.355,205.073,350.458,205.17Z" transform="translate(-267.547 -169.545)" fill="#263238"/>
      <path id="Path_248" data-name="Path 248" d="M338.471,219.172a12.935,12.935,0,0,0-3.049-.546c-.484-.048-.933-.145-1.016-.477a2.475,2.475,0,0,1,.318-1.417q.691-1.742,1.417-3.657c1.977-5.2,3.4-9.479,3.187-9.555s-1.977,4.079-3.948,9.278c-.47,1.279-.926,2.5-1.383,3.678a2.717,2.717,0,0,0-.249,1.881,1.175,1.175,0,0,0,.788.691,3.091,3.091,0,0,0,.816.118A11.808,11.808,0,0,0,338.471,219.172Z" transform="translate(-262.376 -169.609)" fill="#263238"/>
      <path id="Path_249" data-name="Path 249" d="M349.766,194.739c.187.512,2.074.27,4.266.532s3.989.864,4.28.408c.131-.221-.18-.691-.9-1.2a7.5,7.5,0,0,0-6.506-.691C350.1,194.1,349.69,194.491,349.766,194.739Z" transform="translate(-267.338 -166.471)" fill="#263238"/>
      <path id="Path_250" data-name="Path 250" d="M324.739,196.769c.332.422,1.625,0,3.18-.041s2.876.29,3.18-.159c.131-.214-.076-.643-.65-1.044a4.591,4.591,0,0,0-5.123.152C324.773,196.119,324.593,196.554,324.739,196.769Z" transform="translate(-259.602 -166.923)" fill="#263238"/>
      <path id="Path_251" data-name="Path 251" d="M311.787,164.834a4.515,4.515,0,0,1,1.666-4.038,3.215,3.215,0,0,1,4.148.311,3.733,3.733,0,0,1,3.208-4.528c2-.124,3.7,1.383,5.621,1.908a9.006,9.006,0,0,0,5.711-.657c1.811-.726,3.5-1.735,5.33-2.406a15.639,15.639,0,0,1,20,9.181,6.971,6.971,0,0,1,7.363,2.765,11.317,11.317,0,0,1,1.742,8.02,25.7,25.7,0,0,1-1.383,5.489c0,.159,0,.311,0,.47-.131,6.72-.892,14.615-3.761,14.664-5,.076-3.8-9.347-3.8-9.347-6.139-2.364-3.851-11.56-5.386-12.956s-4.743-4.632-17.588,1.929c-4.992,2.551-11.622,2.475-15.245,1.652l-.318-.069h-.076a1.074,1.074,0,0,1-.1-.041,11.525,11.525,0,0,1-3.3-1.383,6.52,6.52,0,0,1-2.71-3.021,3.547,3.547,0,0,1,.691-3.823A7.847,7.847,0,0,1,311.787,164.834Z" transform="translate(-255.61 -154.471)" fill="#263238"/>
      <path id="Path_252" data-name="Path 252" d="M377.473,360.471l.919,17.36,2.074,24.889h-78.56l3.415-36.822L298.63,307.72c.581-20.561,8.476-29.106,24.626-31.07l-1.272.159c2.226-.263,0,0,1.272-.159a52.019,52.019,0,0,0,31.34,0h0c4.84.207,8.856,1.694,12.977,2.489,12.977,2.482,23.659,12.507,26.272,21.239,2.136,7.183,17.588,69.489,17.588,69.489H380.674Z" transform="translate(-251.559 -192.18)" fill="#8e2835"/>
      <path id="Path_253" data-name="Path 253" d="M338.186,233.584a8.538,8.538,0,0,0,1.092,2.136A2.841,2.841,0,0,0,341.3,236.9a2.572,2.572,0,0,0,2.15-1.175,4.045,4.045,0,0,0,.6-2.447c0-.774-.387-1.694-1.155-1.784a1.929,1.929,0,0,0-.933.2l-4.031,1.639" transform="translate(-263.688 -178.241)" fill="#aa6550"/>
      <path id="Path_254" data-name="Path 254" d="M339.441,236.721a5.8,5.8,0,0,0,2.157-.263,3.09,3.09,0,0,0,1.625-1.479,3.229,3.229,0,0,0,.048-2.634,2.9,2.9,0,0,0-.346-.608c-.166-.166-.131-.159-.3-.131a5.93,5.93,0,0,0-.65.256l-.691.27c-.864.346-1.645.65-2.3.9a9.84,9.84,0,0,1-2.2.691,8.318,8.318,0,0,1,2-1.134c.636-.3,1.383-.691,2.247-1.044l.65-.29a7.585,7.585,0,0,1,.74-.3.933.933,0,0,1,.595,0,1.023,1.023,0,0,1,.443.353,3.27,3.27,0,0,1,.456.76,3.775,3.775,0,0,1-.124,3.229,3.415,3.415,0,0,1-2.074,1.652,3.2,3.2,0,0,1-1.749.069C339.614,236.9,339.427,236.763,339.441,236.721Z" transform="translate(-263.332 -178.06)" fill="#263238"/>
      <path id="Path_255" data-name="Path 255" d="M277.7,351.582l-18.5-56.8-1.673-9.534s-5.033-21.266-5.261-23.368c-.256-2.434-1.493-2.89-2.378-2.765-1.383.249-2.192,2.074-2.033,4.148.055.691,1.383,12.1,1.383,12.1a27.12,27.12,0,0,0-2.537-2.835c-1.915-1.95-6-2.765-10.046-2.178s-5.13,1.085-4.978,2.669a2,2,0,0,0,.961,1.445,3.961,3.961,0,0,0,2.765.636c6.492-.823,8.614,2.468,8.614,2.468l.221,1.244s-4.259-2.392-7.273-.864a3.893,3.893,0,0,0-1.175.913,5.116,5.116,0,0,0-3.588,8.061,2.171,2.171,0,0,0,2.178,1.058,2.766,2.766,0,0,0,1.079-.823,3.97,3.97,0,0,1,.532-.491l1.1,3.408s2.89,7.529,3.775,10.944l8.988,57.2a14.367,14.367,0,0,0,16.669,11.912h0A14.36,14.36,0,0,0,277.7,351.582Z" transform="translate(-230.762 -186.761)" fill="#b78876"/>
      <path id="Path_256" data-name="Path 256" d="M262.788,303.806a2.993,2.993,0,0,1-3.236-1.272c-.761-.982-1.155-2.205-1.839-3.243-2.074-3.111-6.319-4.238-8.213-7.439-.27-.449-.456-1.079-.076-1.431s.92-.159,1.383,0l11.366,4.777" transform="translate(-236.305 -196.369)" fill="#b78876"/>
      <path id="Path_257" data-name="Path 257" d="M262,295.094a5.336,5.336,0,0,0-1.175-.643c-.774-.373-1.908-.885-3.312-1.514l-4.936-2.157-1.438-.615a2.427,2.427,0,0,0-1.818-.311,1.03,1.03,0,0,0-.608,1,2.2,2.2,0,0,0,.283.968,8.3,8.3,0,0,0,1.092,1.452c1.694,1.77,3.74,2.765,5.275,4.031a9.222,9.222,0,0,1,1.936,2,24.581,24.581,0,0,1,1.217,2.164,4.355,4.355,0,0,0,2.765,2.406c.913.173,1.383-.18,1.341-.194a3.457,3.457,0,0,1-1.272-.069,4.2,4.2,0,0,1-2.406-2.378c-.353-.691-.691-1.459-1.175-2.254a9.555,9.555,0,0,0-2.012-2.171c-1.576-1.334-3.609-2.371-5.164-4.017a7.344,7.344,0,0,1-1-1.307c-.256-.442-.277-.92,0-1a2.518,2.518,0,0,1,1.286.3l1.438.595,5,2.026c1.431.56,2.593,1.009,3.395,1.307a4.84,4.84,0,0,0,1.286.387Z" transform="translate(-236.151 -196.237)" fill="#aa6550"/>
      <path id="Path_258" data-name="Path 258" d="M244.531,284.812a4.985,4.985,0,0,0-.982-2.116,3.906,3.906,0,0,0-2.136-1.224,10.072,10.072,0,0,0-3.125-.111,16.041,16.041,0,0,1-3.243.062,5.24,5.24,0,0,1-2.523-.933,2.074,2.074,0,0,1-.823-1.618,1.12,1.12,0,0,1,.152-.643c.041,0,0,.235,0,.636a1.915,1.915,0,0,0,.843,1.383,5.061,5.061,0,0,0,2.371.774,17.131,17.131,0,0,0,3.16-.1,9.776,9.776,0,0,1,3.263.166,4.107,4.107,0,0,1,2.282,1.424,3.686,3.686,0,0,1,.733,1.652A1.3,1.3,0,0,1,244.531,284.812Z" transform="translate(-230.901 -192.668)" fill="#aa6550"/>
      <path id="Path_259" data-name="Path 259" d="M255.16,264a13.4,13.4,0,0,1,.277,2.261c.145,1.556.325,3.408.525,5.455s.436,3.892.608,5.448a12.976,12.976,0,0,1,.2,2.268,10.059,10.059,0,0,1-.519-2.219c-.242-1.383-.519-3.312-.74-5.448s-.353-4.079-.4-5.483A10.253,10.253,0,0,1,255.16,264Z" transform="translate(-238.114 -188.276)" fill="#aa6550"/>
      <path id="Path_260" data-name="Path 260" d="M243.569,290.857a3.078,3.078,0,0,1-.691-.187,2.074,2.074,0,0,0-1.763.1,1.12,1.12,0,0,0-.484,1.009,5.775,5.775,0,0,0,.263,1.459,2.537,2.537,0,0,1-.076,1.811,2.171,2.171,0,0,1-1.639,1.092,2.489,2.489,0,0,1-1.867-.581,3.139,3.139,0,0,1-1.009-1.493,10.04,10.04,0,0,1-.27-2.918,5.628,5.628,0,0,1,.38-1.936,1.383,1.383,0,0,1,.4-.608,4.687,4.687,0,0,0-.235.691,6.781,6.781,0,0,0-.221,1.887,10.493,10.493,0,0,0,.346,2.765,2.454,2.454,0,0,0,2.42,1.749,1.756,1.756,0,0,0,1.3-.85,2.164,2.164,0,0,0,.062-1.507,6.1,6.1,0,0,1-.228-1.569,1.452,1.452,0,0,1,.691-1.265,2.178,2.178,0,0,1,1.984,0C243.369,290.691,243.611,290.829,243.569,290.857Z" transform="translate(-232.235 -195.871)" fill="#aa6550"/>
      <path id="Path_261" data-name="Path 261" d="M235.782,295a1,1,0,0,1,0,.65,2.005,2.005,0,0,1-1.2,1.314,2.655,2.655,0,0,1-2.579-.5,4.321,4.321,0,0,1-1.431-2.876,5.261,5.261,0,0,1,.643-3.146,4.93,4.93,0,0,1,1.86-1.846,4.778,4.778,0,0,1,1.652-.588,1.383,1.383,0,0,1,.643,0,8.393,8.393,0,0,0-2.129.864,4.84,4.84,0,0,0-2.219,4.674,4.01,4.01,0,0,0,1.251,2.606,2.344,2.344,0,0,0,2.2.519,1.894,1.894,0,0,0,1.141-1.065C235.761,295.235,235.741,295,235.782,295Z" transform="translate(-230.545 -195.672)" fill="#aa6550"/>
      <path id="Path_262" data-name="Path 262" d="M250.65,305.553a1.8,1.8,0,0,1,1.085-.1,4.245,4.245,0,0,1,2.523,1.182l-.366.152a11.066,11.066,0,0,1,.09-1.549,9.772,9.772,0,0,1,1.832-5.005,22.152,22.152,0,0,0-1.383,5.061,14.414,14.414,0,0,0-.1,1.493v.518l-.36-.366a4.5,4.5,0,0,0-2.261-1.217A9,9,0,0,1,250.65,305.553Z" transform="translate(-236.75 -199.457)" fill="#aa6550"/>
      <path id="Path_263" data-name="Path 263" d="M245.962,279.928c.111.042-.242.906-1.2,1.438s-1.867.408-1.846.29.8-.207,1.625-.691S245.844,279.858,245.962,279.928Z" transform="translate(-234.364 -193.19)" fill="#aa6550"/>
      <path id="Path_264" data-name="Path 264" d="M311.421,279.92s-.256.277-.691.809a8.18,8.18,0,0,0-1.6,2.572,3.388,3.388,0,0,0-.18,1,2.226,2.226,0,0,0,.263,1.044,3.664,3.664,0,0,0,1.991,1.48,19.574,19.574,0,0,0,6.326.892c1.189,0,2.475.069,3.789.145l2.012.235c.691.076,1.383.263,2.074.387a21.058,21.058,0,0,1,8.3,3.692,15.21,15.21,0,0,1,3.457,3.6,12.821,12.821,0,0,1,.657,1.12c.2.408.339.8.5,1.2a14.082,14.082,0,0,1,.691,2.523,16.053,16.053,0,0,1-1.625,10.626,15.494,15.494,0,0,1-8.172,6.976,15.971,15.971,0,0,1-5.088,1.009,19.758,19.758,0,0,1-4.922-.595,30.718,30.718,0,0,0-4.522-.809,7.785,7.785,0,0,0-4.107.726,10.55,10.55,0,0,0-3.077,2.5c-.864.968-1.6,1.984-2.323,2.945a14.632,14.632,0,0,1-4.722,4.522,5.842,5.842,0,0,1-2.634.691,5.919,5.919,0,0,1-2.247-.415,4.963,4.963,0,0,1-1.542-.975,3.684,3.684,0,0,1-.774-1.092,2.393,2.393,0,0,1-.242-1.065,10.215,10.215,0,0,0,.373,1,3.8,3.8,0,0,0,.788,1,4.84,4.84,0,0,0,1.493.871,5.489,5.489,0,0,0,4.6-.366,14.434,14.434,0,0,0,4.5-4.466c.691-.968,1.438-2,2.316-3.014A11.011,11.011,0,0,1,310.287,318a8.4,8.4,0,0,1,4.418-.83,31.889,31.889,0,0,1,4.625.8,19.178,19.178,0,0,0,4.757.56,15.56,15.56,0,0,0,4.84-.982,14.864,14.864,0,0,0,7.792-6.665,15.4,15.4,0,0,0,1.562-10.149,14.34,14.34,0,0,0-.691-2.413c-.166-.387-.3-.788-.477-1.134a9.9,9.9,0,0,0-.608-1.051,14.671,14.671,0,0,0-3.263-3.457,20.615,20.615,0,0,0-8.034-3.637c-.691-.131-1.383-.318-2.026-.394l-1.977-.256c-1.3-.09-2.544-.145-3.754-.187a19.7,19.7,0,0,1-6.457-1.03,4.01,4.01,0,0,1-2.088-1.666,2.489,2.489,0,0,1-.27-1.21,3.563,3.563,0,0,1,.228-1.085,7.668,7.668,0,0,1,1.763-2.579A3.817,3.817,0,0,1,311.421,279.92Z" transform="translate(-249.824 -193.189)" fill="#fafafa"/>
      <path id="Path_265" data-name="Path 265" d="M395.53,337.433a5.2,5.2,0,0,1-.332-1.556,12.762,12.762,0,0,1,.283-4.335,16.738,16.738,0,0,1,2.689-5.87,19.3,19.3,0,0,1,5.8-5.351,24.328,24.328,0,0,1,7.384-2.765,31.8,31.8,0,0,1,6.4-.657,35.629,35.629,0,0,1,4.314.214,5.856,5.856,0,0,1,1.556.277c0,.124-2.247-.124-5.863,0a34.978,34.978,0,0,0-6.264.8,24.892,24.892,0,0,0-7.156,2.766,19.281,19.281,0,0,0-5.635,5.123,16.917,16.917,0,0,0-2.724,5.6,14.365,14.365,0,0,0-.5,4.19,10.421,10.421,0,0,1,.055,1.562Z" transform="translate(-281.341 -204.602)" fill="#fafafa"/>
      <path id="Path_266" data-name="Path 266" d="M435.674,364a5,5,0,0,1-.816,1.217,19.677,19.677,0,0,1-2.766,2.855,22.662,22.662,0,0,1-4.985,3.208A22.269,22.269,0,0,1,412.866,373a22.557,22.557,0,0,1-5.607-1.936,19.763,19.763,0,0,1-3.381-2.109,4.776,4.776,0,0,1-1.079-.989,50.917,50.917,0,0,0,4.681,2.641,23.223,23.223,0,0,0,24.288-2.931C434.361,365.609,435.564,363.894,435.674,364Z" transform="translate(-283.709 -219.137)" fill="#fafafa"/>
      <path id="Path_267" data-name="Path 267" d="M381.879,360.78a3.11,3.11,0,0,1-.629.263,4.784,4.784,0,0,0-1.583,1.051,7.66,7.66,0,0,0-1.59,2.551,24.014,24.014,0,0,0-1.12,3.892,45.205,45.205,0,0,1-1.12,4.84,11.545,11.545,0,0,1-1.2,2.579,10.183,10.183,0,0,1-2.019,2.254,15.735,15.735,0,0,1-5.711,2.883c-2.129.636-4.383.982-6.651,1.424a27.889,27.889,0,0,0-11.815,4.922,19.269,19.269,0,0,0-3.941,3.968,17.408,17.408,0,0,0-2.247,4.328,14.92,14.92,0,0,0-.733,7c.249,1.666.629,2.537.553,2.565a2.762,2.762,0,0,1-.29-.622,6.4,6.4,0,0,1-.27-.788,9.636,9.636,0,0,1-.27-1.106,14.56,14.56,0,0,1,.525-7.2,17.588,17.588,0,0,1,2.24-4.515,19.772,19.772,0,0,1,4.024-4.148,28.049,28.049,0,0,1,12.085-5.1c2.288-.449,4.521-.788,6.589-1.383a15.21,15.21,0,0,0,5.489-2.717,9.522,9.522,0,0,0,1.908-2.074,11.1,11.1,0,0,0,1.161-2.42,47.349,47.349,0,0,0,1.189-4.791,23.06,23.06,0,0,1,1.238-3.955,7.605,7.605,0,0,1,1.777-2.593,4.314,4.314,0,0,1,1.721-.989,2.072,2.072,0,0,1,.685-.111Z" transform="translate(-264.641 -218.145)" fill="#fafafa"/>
      <path id="Path_268" data-name="Path 268" d="M368.135,354.677a2.9,2.9,0,0,1,.359,1.417,6.1,6.1,0,0,1-1.106,3.823,5.89,5.89,0,0,1-2.074,1.887,5.317,5.317,0,0,1-1.5.546,5.96,5.96,0,0,1-1.687.069,6.575,6.575,0,0,1-3.319-1.341,5.87,5.87,0,0,1-2.143-3.208,5.463,5.463,0,0,1-.034-2.544,5.573,5.573,0,0,1,1.106-2.171,11.164,11.164,0,0,1,1.514-1.652,5.377,5.377,0,0,1,.878-.657,2.316,2.316,0,0,1,1.085-.38l.09.615-.339.083-.173-.595a5.87,5.87,0,0,1,3.809.207,6.166,6.166,0,0,1,2.406,1.666,5.2,5.2,0,0,1,.982,1.59c.145.408.18.636.152.643a9.583,9.583,0,0,0-1.383-1.984,6.153,6.153,0,0,0-2.316-1.438,5.455,5.455,0,0,0-3.457-.09l-.173-.595.339-.1.1.622a3.124,3.124,0,0,0-1.549.9,11.176,11.176,0,0,0-1.383,1.583,4.556,4.556,0,0,0-.926,4.148,5.3,5.3,0,0,0,1.874,2.828,6.084,6.084,0,0,0,2.959,1.238,5.428,5.428,0,0,0,1.5-.035,5.026,5.026,0,0,0,1.341-.449,5.53,5.53,0,0,0,1.943-1.659,6.112,6.112,0,0,0,1.238-3.519C368.225,355.2,368.066,354.7,368.135,354.677Z" transform="translate(-269.418 -214.926)" fill="#fafafa"/>
      <path id="Path_269" data-name="Path 269" d="M307.991,324a.483.483,0,0,1,0,.187v.539c0,.5-.062,1.2-.1,2.074-.111,1.811-.214,4.432-.359,7.667-.27,6.478-.539,15.424-.747,25.318s-.339,18.847-.435,25.325c-.048,3.222-.09,5.835-.118,7.681,0,.878-.035,1.576-.042,2.074v.546a.651.651,0,0,1,0,.187.551.551,0,0,1,0-.187V385.117c0-6.485.118-15.438.332-25.339s.512-18.84.85-25.318c.18-3.236.325-5.856.477-7.66.069-.885.124-1.583.166-2.074a4.653,4.653,0,0,1,.055-.546A.768.768,0,0,1,307.991,324Z" transform="translate(-253.888 -206.794)" fill="#263238"/>
      <g id="Group_17" data-name="Group 17" transform="translate(40.891 139.675)" opacity="0.2">
        <path id="Path_270" data-name="Path 270" d="M289.69,398.279c3.858,1.846,8.9-1.7,10.868-5.489a114.332,114.332,0,0,0,.892-12.638c-.27-7.909.311-15.742.042-23.652a24.813,24.813,0,0,1-5.642,12.846,8.648,8.648,0,0,0-2.123,3.27c-.567,2.281,1.175,6.381,2.3,8.448,3.457,6.319-4.079,17.284-6.084,17.056" transform="translate(-289.69 -356.5)"/>
      </g>
      <g id="Group_18" data-name="Group 18" transform="translate(113.09 129.844)" opacity="0.2">
        <path id="Path_271" data-name="Path 271" d="M394.12,342.28q1.887,23.645,3.789,47.3a13.759,13.759,0,0,0,.83,4.376,4.729,4.729,0,0,0,3.18,2.9c2.24.456,4.418-1.473,5.047-3.671s.131-4.542-.422-6.762c-.94-3.782-2-7.529-3.063-11.276q-4.625-16.316-9.257-32.626" transform="translate(-394.12 -342.28)"/>
      </g>
      <path id="Path_272" data-name="Path 272" d="M323.906,432.365a9.029,9.029,0,0,0,1.058-2.51,11.842,11.842,0,0,0-1.182-7.2c-.65-1.431-1.569-2.918-2.5-4.549a19.912,19.912,0,0,1-2.337-5.586,13.309,13.309,0,0,1,.484-6.692c.691-2.226,1.694-4.39,2.5-6.658a19.863,19.863,0,0,0,.346-13.226,19.356,19.356,0,0,0-2.62-5.241,20.4,20.4,0,0,0-3.491-3.754,20.74,20.74,0,0,0-6.492-3.623c-1.68-.56-2.662-.691-2.648-.774a2.358,2.358,0,0,1,.691.062,13.627,13.627,0,0,1,2.012.449,19.7,19.7,0,0,1,6.727,3.457,20.224,20.224,0,0,1,3.657,3.8,19.891,19.891,0,0,1,2.765,5.386,20.319,20.319,0,0,1-.3,13.675c-.83,2.309-1.839,4.459-2.5,6.623a12.659,12.659,0,0,0-.512,6.347,19.207,19.207,0,0,0,2.212,5.434c.892,1.639,1.8,3.146,2.441,4.632a11.758,11.758,0,0,1,.982,7.481,6.781,6.781,0,0,1-.85,1.894C324.093,432.2,323.927,432.379,323.906,432.365Z" transform="translate(-254.151 -221.776)" fill="#fafafa"/>
      <path id="Path_273" data-name="Path 273" d="M413.535,290.343a3.83,3.83,0,0,1-.691,1.383,10.136,10.136,0,0,1-3,2.918,12.881,12.881,0,0,1-5.9,1.95,19.622,19.622,0,0,1-7.529-.961,15.8,15.8,0,0,1-6.575-3.816,9.742,9.742,0,0,1-1.915-2.765,9.092,9.092,0,0,1-.747-2.835,7.156,7.156,0,0,1,.774-4.114,4.409,4.409,0,0,1,.346-.56,2.35,2.35,0,0,1,.3-.38c.173-.187.277-.283.3-.263s-.311.456-.691,1.327a7.391,7.391,0,0,0-.512,3.934,8.76,8.76,0,0,0,.774,2.641,9.478,9.478,0,0,0,1.853,2.551,15.473,15.473,0,0,0,6.312,3.6,19.656,19.656,0,0,0,7.266.989,12.7,12.7,0,0,0,5.676-1.721,11.11,11.11,0,0,0,3.042-2.641,14.832,14.832,0,0,1,.913-1.231Z" transform="translate(-278.875 -193.491)" fill="#fafafa"/>
      <path id="Path_274" data-name="Path 274" d="M404.172,368.547a1.157,1.157,0,0,1-.076-.194c-.042-.131-.1-.339-.18-.581-.152-.532-.373-1.279-.657-2.233l-2.351-8.248c-1.963-6.99-4.66-16.593-7.605-27.24-1.48-5.324-2.883-10.371-4.148-15.01a50.918,50.918,0,0,1-1.473-6.651,20.36,20.36,0,0,1,0-5.939,12.8,12.8,0,0,1,3.913-7.522,9.249,9.249,0,0,1,1.943-1.307l.56-.235a.636.636,0,0,1,.194-.069,10.945,10.945,0,0,0-2.606,1.715,12.769,12.769,0,0,0-3.747,7.46A20.111,20.111,0,0,0,388,308.35a50.972,50.972,0,0,0,1.493,6.6c1.286,4.618,2.7,9.679,4.19,15,2.938,10.64,5.6,20.271,7.529,27.267.947,3.457,1.708,6.3,2.247,8.3.249.961.449,1.721.588,2.261.062.242.111.436.145.588A.754.754,0,0,1,404.172,368.547Z" transform="translate(-278.976 -197.325)" fill="#263238"/>
      <path id="Path_275" data-name="Path 275" d="M356.2,177.5a6.448,6.448,0,0,0,0-1.48,5.773,5.773,0,0,0-1.908-3.457,7.771,7.771,0,0,0-5.531-1.818,23.473,23.473,0,0,0-7.156,1.6c-1.244.408-2.482.8-3.7,1.072a18.744,18.744,0,0,1-3.574.436,19.559,19.559,0,0,1-6.029-.788,18.668,18.668,0,0,1-3.768-1.6,9.747,9.747,0,0,1-.947-.581,1.6,1.6,0,0,1-.311-.235s.47.263,1.327.691a20.245,20.245,0,0,0,3.775,1.473,19.628,19.628,0,0,0,5.939.691,19.3,19.3,0,0,0,3.512-.442c1.2-.27,2.413-.691,3.664-1.072a23.626,23.626,0,0,1,7.259-1.59,7.958,7.958,0,0,1,5.683,1.964,5.787,5.787,0,0,1,1.881,3.6,3.338,3.338,0,0,1-.117,1.542Z" transform="translate(-259.166 -159.382)" fill="#455a64"/>
      <path id="Path_276" data-name="Path 276" d="M381.259,199.92a1.846,1.846,0,0,1-.166-.256c-.1-.173-.221-.436-.38-.781a15.6,15.6,0,0,1-.968-3.035,16.593,16.593,0,0,1-.318-4.729,41.479,41.479,0,0,1,1.092-5.683,11.1,11.1,0,0,0,0-5.614,5.655,5.655,0,0,0-1.168-2.136,4.3,4.3,0,0,0-1.756-1.148,4,4,0,0,0-3.021.076,5.392,5.392,0,0,0-.933.657,2.3,2.3,0,0,1,.871-.781,4.072,4.072,0,0,1,3.166-.194,4.543,4.543,0,0,1,1.894,1.189,6,6,0,0,1,1.265,2.233,11.325,11.325,0,0,1,0,5.794,44.15,44.15,0,0,0-1.113,5.635,17.34,17.34,0,0,0,.235,4.646,18.138,18.138,0,0,0,.85,3.035A8.932,8.932,0,0,1,381.259,199.92Z" transform="translate(-274.709 -161.136)" fill="#455a64"/>
      <path id="Path_277" data-name="Path 277" d="M356.81,173.114a2.637,2.637,0,0,1,0-.491,13.486,13.486,0,0,1,.055-1.383,16.469,16.469,0,0,0-.567-5.082,9.077,9.077,0,0,0-1.632-3.083,6.332,6.332,0,0,0-3.277-2.164,8.241,8.241,0,0,0-4.376.18,20.05,20.05,0,0,0-4.376,1.984A35.317,35.317,0,0,1,338.3,165.3a13.184,13.184,0,0,1-4.473.9,14.139,14.139,0,0,1-4.093-.5,16.062,16.062,0,0,1-3.319-1.383,13.5,13.5,0,0,1-3.934-3.36,8.791,8.791,0,0,1-.8-1.161,2.422,2.422,0,0,1-.235-.429,2.228,2.228,0,0,1,.3.387,10.006,10.006,0,0,0,.844,1.113,14.1,14.1,0,0,0,3.948,3.222,15.957,15.957,0,0,0,3.277,1.307,14.132,14.132,0,0,0,4.01.456,12.956,12.956,0,0,0,4.349-.892,35.756,35.756,0,0,0,4.293-2.219,20.5,20.5,0,0,1,4.459-2,8.607,8.607,0,0,1,4.556-.166,6.582,6.582,0,0,1,3.422,2.3,9.07,9.07,0,0,1,1.645,3.2,15.388,15.388,0,0,1,.463,5.151c-.035.615-.083,1.085-.124,1.383A2.017,2.017,0,0,1,356.81,173.114Z" transform="translate(-258.599 -155.983)" fill="#455a64"/>
      <path id="Path_278" data-name="Path 278" d="M345.477,423.8l51.721-7.709-.83-4.6h27.793l.809,7.08A21.384,21.384,0,0,1,404.181,444l-60.3-.691Z" transform="translate(-265.524 -233.796)" fill="#b78876"/>
      <path id="Path_279" data-name="Path 279" d="M334.921,428.35c-.277.09-3.761-1.473-6.879-2.918a22.546,22.546,0,0,0-10.592-2.074l-14.373.733a7.021,7.021,0,0,0,2.413,3.215c1.528.843,10.46,1.023,10.46,1.023l-.463.47a10.322,10.322,0,0,1-7.149,3.132l-1.383.035a13.4,13.4,0,0,1-3-.588l-3.547-1.431c-1.072-.484-2.205-.408-2.676.691-.422.975-.111,2.323,2.821,3.8,1.632.823,7.7,2.924,7.7,2.924a14.16,14.16,0,0,0,.353,2.558c.263.885,2.648,1.763,2.648,1.763a32.175,32.175,0,0,0,2.116,3.8,22.605,22.605,0,0,0,4.736,1.632,20.347,20.347,0,0,0,11.325-.09l5.482-1.632V428.709" transform="translate(-251.235 -237.451)" fill="#b78876"/>
      <path id="Path_280" data-name="Path 280" d="M319.9,445.494a16.371,16.371,0,0,1-7.252-1.908c.041-.1,1.611.512,3.609,1.03S319.916,445.39,319.9,445.494Z" transform="translate(-255.886 -243.699)" fill="#aa6550"/>
      <path id="Path_281" data-name="Path 281" d="M320.7,450.754a3.6,3.6,0,0,1-2.019-.145,3.671,3.671,0,0,1-1.818-.9,63.95,63.95,0,0,0,3.837,1.044Z" transform="translate(-257.185 -245.592)" fill="#aa6550"/>
      <path id="Path_282" data-name="Path 282" d="M434.613,430.093c-.069,0-.408-1-1.238-2.517a19.356,19.356,0,0,0-1.659-2.53,21.458,21.458,0,0,0-2.51-2.717,21.939,21.939,0,0,0-2.973-2.205,19.937,19.937,0,0,0-2.689-1.383c-1.6-.657-2.655-.892-2.634-.961a3.248,3.248,0,0,1,.754.152,6.729,6.729,0,0,1,.857.228c.332.1.691.207,1.12.373a17.637,17.637,0,0,1,2.765,1.327,20.52,20.52,0,0,1,3.042,2.219,21.194,21.194,0,0,1,2.537,2.765,17.715,17.715,0,0,1,1.611,2.613c.214.38.353.754.5,1.072a6.83,6.83,0,0,1,.311.83A3.068,3.068,0,0,1,434.613,430.093Z" transform="translate(-289.298 -235.738)" fill="#aa6550"/>
      <path id="Path_283" data-name="Path 283" d="M321.957,428.72a6.474,6.474,0,0,1-1.106,1.182,18.125,18.125,0,0,1-3.132,2.371,12.446,12.446,0,0,1-3.671,1.417,5.138,5.138,0,0,1-1.618.173,20.82,20.82,0,0,0,5.1-1.9,23.878,23.878,0,0,0,3.146-2.254,8.366,8.366,0,0,1,1.279-.989Z" transform="translate(-255.818 -239.114)" fill="#aa6550"/>
    </g>
    <g id="freepik--character-1--inject-164" transform="translate(61.138 162.313)">
      <path id="Path_284" data-name="Path 284" d="M105.423,366.4c1.231,0-9.416,28.609-12.161,35.916-.3.809-.512,1.521-.512,1.521l74.543.124-.878-69.365a1.035,1.035,0,0,0,0-.138l-6.222-49.612a1.231,1.231,0,0,0-.892-1.03c-2.952-.8-13.592-3.54-21.73-3.844-9.534-.353-23.334,1.542-23.334,1.542s-12.4,1.231-19.241,3.72a1.217,1.217,0,0,0-.8,1.32Z" transform="translate(-70.894 -201.033)" fill="#8e2835"/>
      <path id="Path_285" data-name="Path 285" d="M152.1,360.5a5.082,5.082,0,0,1-.373.906,8.552,8.552,0,0,1-.525,1.016,13.89,13.89,0,0,1-.788,1.293,16.152,16.152,0,0,1-1.092,1.486,18.8,18.8,0,0,1-1.383,1.583,24.265,24.265,0,0,1-3.733,3.077,24.951,24.951,0,0,1-4.314,2.2c-.691.242-1.383.491-2.012.65a16.241,16.241,0,0,1-1.8.4,14.3,14.3,0,0,1-1.5.207,8.2,8.2,0,0,1-1.148.076,4.442,4.442,0,0,1-.975,0c0-.076,1.383-.069,3.574-.512a21.346,21.346,0,0,0,3.733-1.134,25.577,25.577,0,0,0,4.238-2.192,25.119,25.119,0,0,0,3.7-3.007,17.146,17.146,0,0,0,1.383-1.542,16.6,16.6,0,0,0,1.113-1.438C151.5,361.751,152.033,360.465,152.1,360.5Z" transform="translate(-83.15 -225.901)" fill="#263238"/>
      <g id="Group_19" data-name="Group 19" transform="translate(24.386 174.558)" opacity="0.2">
        <path id="Path_286" data-name="Path 286" d="M96.41,439.593a21.937,21.937,0,0,0,21.384-2.676c2.689-1.95,4.943-4.5,7.847-6.125,4.024-2.24,8.815-2.454,13.412-2.765,6.146-.442,12.348-1.2,18.128-3.339a7.246,7.246,0,0,0,3.173-1.915,2.843,2.843,0,0,0,.283-3.457c-.781-.982-2.268-1.051-3.547-1.009-19.275.567-36.891,2.109-55.655,6.568" transform="translate(-96.41 -418.297)"/>
      </g>
      <path id="Path_287" data-name="Path 287" d="M126.46,173.382c5.96-6.07,15.362-9.679,23.147-6.222,5.241,2.3,8.794,7.211,13.392,10.606,3.346,2.475,7.481,4.39,9.237,8.165,1.549,3.325.8,7.2.429,10.854s-.111,7.861,2.717,10.2c1.48,1.224,3.457,1.715,5.109,2.669,3.367,1.929,5.365,5.683,6.084,9.492s.332,7.736-.055,11.6l-16.047,3.056-2.634-4.432-.906,6.948-20.478,1.846Z" transform="translate(-81.298 -165.814)" fill="#263238"/>
      <path id="Path_288" data-name="Path 288" d="M122.065,185.53v4.459L120.8,256.921c-.111,7.757,7.315,14.36,15.625,14.415h0c8.386.055,11.809-6.222,12.05-14.083.249-8.22.691-16.876.691-16.876s10.64-1.466,13.219-15.21c1.279-6.845,1.244-18.121.92-27.35a14.609,14.609,0,0,0-15.729-14.055Z" transform="translate(-79.551 -171.339)" fill="#ffbe9d"/>
      <path id="Path_289" data-name="Path 289" d="M175.34,216.2a1.763,1.763,0,0,1-1.756,1.735,1.694,1.694,0,0,1-1.784-1.645,1.777,1.777,0,0,1,1.756-1.742,1.694,1.694,0,0,1,1.784,1.652Z" transform="translate(-95.292 -180.855)" fill="#263238"/>
      <path id="Path_290" data-name="Path 290" d="M175.3,211.585c-.228.228-1.542-.809-3.457-.85s-3.332.864-3.533.622c-.1-.1.138-.512.76-.94a4.8,4.8,0,0,1,2.835-.788,4.653,4.653,0,0,1,2.765.968C175.224,211.059,175.411,211.481,175.3,211.585Z" transform="translate(-94.208 -179.335)" fill="#263238"/>
      <path id="Path_291" data-name="Path 291" d="M148.16,216.2a1.77,1.77,0,0,1-1.756,1.735,1.694,1.694,0,0,1-1.784-1.645,1.777,1.777,0,0,1,1.756-1.742,1.694,1.694,0,0,1,1.784,1.652Z" transform="translate(-86.903 -180.855)" fill="#263238"/>
      <path id="Path_292" data-name="Path 292" d="M148.16,211.352c-.228.221-1.542-.809-3.457-.857s-3.332.871-3.533.629c-.1-.1.138-.519.761-.94a4.839,4.839,0,0,1,2.835-.8,4.681,4.681,0,0,1,2.765.968C148.084,210.827,148.271,211.248,148.16,211.352Z" transform="translate(-85.832 -179.262)" fill="#263238"/>
      <path id="Path_293" data-name="Path 293" d="M160.535,225.891a12.562,12.562,0,0,1,3.111-.477c.491-.035.954-.118,1.044-.449a2.462,2.462,0,0,0-.283-1.452c-.422-1.2-.871-2.441-1.341-3.754-1.853-5.33-3.18-9.679-2.966-9.79s1.894,4.2,3.747,9.534c.449,1.314.878,2.565,1.279,3.768a2.765,2.765,0,0,1,.2,1.915,1.217,1.217,0,0,1-.823.691,3.091,3.091,0,0,1-.83.09A15.827,15.827,0,0,1,160.535,225.891Z" transform="translate(-91.674 -179.441)" fill="#263238"/>
      <path id="Path_294" data-name="Path 294" d="M153.546,263.238a35.149,35.149,0,0,1-18.376-5.448s4.224,9.617,18.1,8.7Z" transform="translate(-83.987 -194.201)" fill="#eb996e"/>
      <path id="Path_295" data-name="Path 295" d="M156.837,238.958a3.457,3.457,0,0,0-3.049-1.383,3.146,3.146,0,0,0-2.2,1.106,2,2,0,0,0-.214,2.268,2.323,2.323,0,0,0,2.489.691,7.329,7.329,0,0,0,2.475-1.383,2.033,2.033,0,0,0,.56-.553.629.629,0,0,0,0-.691" transform="translate(-88.909 -187.959)" fill="#eb996e"/>
      <path id="Path_296" data-name="Path 296" d="M152.417,234.65c.311,0,.256,2.074,1.984,3.581s3.948,1.348,3.955,1.639c0,.131-.5.394-1.438.387a5.116,5.116,0,0,1-3.3-1.251,4.473,4.473,0,0,1-1.535-2.994C152.023,235.141,152.272,234.636,152.417,234.65Z" transform="translate(-89.204 -187.059)" fill="#263238"/>
      <path id="Path_297" data-name="Path 297" d="M148.273,203.516c-.207.512-2.074.214-4.349.422s-4.072.767-4.356.3c-.124-.228.2-.691.947-1.189a7.605,7.605,0,0,1,6.63-.546C147.955,202.852,148.356,203.274,148.273,203.516Z" transform="translate(-85.336 -176.977)" fill="#263238"/>
      <path id="Path_298" data-name="Path 298" d="M175,205.954c-.422.422-2-.076-3.934-.152s-3.554.194-3.92-.27c-.159-.221.111-.65.837-1.037a6.292,6.292,0,0,1,3.215-.622,6.222,6.222,0,0,1,3.111.954C174.977,205.29,175.191,205.746,175,205.954Z" transform="translate(-93.843 -177.555)" fill="#263238"/>
      <path id="Path_299" data-name="Path 299" d="M89.388,285.77s-22.234,5.213-26.548,26.272c-1.984,9.679-4.757,65.313,8.2,73.976,16.724,11.159,38.025,1.009,38.025,1.009L106.3,360.119H92.472l-1.86-29.48C91.151,332.942,89.388,285.77,89.388,285.77Z" transform="translate(-61.138 -202.837)" fill="#8e2835"/>
      <path id="Path_300" data-name="Path 300" d="M208.289,378.4a17.194,17.194,0,0,0,15.424-17.844l-9.085-38.6s-5.89-33.116-24.509-36.1l6.347,50.47-.608,10.64s.29,7.038,1,20.229Z" transform="translate(-100.946 -202.861)" fill="#8e2835"/>
      <path id="Path_301" data-name="Path 301" d="M213.43,384.753a23.288,23.288,0,0,0-3.346.366,13.62,13.62,0,0,0-10.689,10.91,23.138,23.138,0,0,0-.3,3.36,3.664,3.664,0,0,1-.1-.913,11.907,11.907,0,0,1,.152-2.5,13.406,13.406,0,0,1,10.91-11.076,12.644,12.644,0,0,1,2.5-.207A3.6,3.6,0,0,1,213.43,384.753Z" transform="translate(-103.682 -233.367)" fill="#263238"/>
      <path id="Path_302" data-name="Path 302" d="M118.677,174.1c2.5,3.36,3.692,5.939,5.192,11.919.74,2.924-1.645,4.992-4.01,6.782a1.9,1.9,0,0,1-3.007-1.106h0s.816,9.161-2.5,13.267a7.954,7.954,0,0,0-1.251,6.478,10.993,10.993,0,0,0,2.959,5.6,13.826,13.826,0,0,1,2.261,15.576,41.793,41.793,0,0,0-2.109,3.761,5.669,5.669,0,0,0-.436,2.434,1.936,1.936,0,0,1-1.639,2.074,151.54,151.54,0,0,1-34.361,1.03,1.887,1.887,0,0,1-1.68-1.424c-.9-3.844.6-7.992,2.517-11.449,2.143-3.906,4.84-7.653,5.607-12.044.691-4.148-.436-8.587,1.224-12.445,2.074-4.722,7.605-6.955,10.37-11.29,2.62-4.086,2.406-9.444,4.75-13.689a13.089,13.089,0,0,1,16.13-5.483" transform="translate(-66.29 -168.069)" fill="#263238"/>
      <path id="Path_303" data-name="Path 303" d="M137.592,179.452c4.349,2.24,6.361,7.557,10.585,10.018,3.844,2.24,8.642,1.652,13.046.989-.159-.975-.325-1.957-.491-2.931a8.014,8.014,0,0,0,1.632,2.371,2.676,2.676,0,0,0,2.676.636c1.48-.595,1.673-2.627,1.3-4.148a14.353,14.353,0,0,0-3.844-6.513,19.5,19.5,0,0,0-25.435-2.033" transform="translate(-84.57 -168.359)" fill="#263238"/>
      <path id="Path_304" data-name="Path 304" d="M196.8,324.21a2.766,2.766,0,0,1,.041.546c0,.387,0,.906.048,1.556,0,1.383.1,3.312.2,5.725.2,4.84.65,11.5,1.2,18.867s.954,14.042,1.085,18.881c.069,2.42.1,4.376.083,5.731v1.556a3.018,3.018,0,0,1,0,.546,2.768,2.768,0,0,1-.041-.546c0-.387,0-.906-.048-1.556,0-1.383-.1-3.3-.2-5.724-.194-4.84-.65-11.5-1.189-18.867s-.961-14.035-1.092-18.874c-.069-2.42-.1-4.383-.083-5.738v-1.556a4.149,4.149,0,0,1,0-.546Z" transform="translate(-103.004 -214.7)" fill="#263238"/>
      <path id="Path_305" data-name="Path 305" d="M105.383,376.317a1.639,1.639,0,0,1-.048-.387c0-.3-.041-.691-.076-1.113-.055-1.016-.131-2.392-.221-4.079-.2-3.457-.5-8.206-.864-13.468s-.691-9.969-.933-13.461c-.111-1.68-.2-3.063-.27-4.079,0-.449-.041-.816-.055-1.106a1.577,1.577,0,0,1,0-.394,1.942,1.942,0,0,1,.062.387c0,.29.076.657.124,1.106.1,1.009.228,2.385.387,4.072.3,3.457.691,8.193,1.037,13.454s.622,10.025.754,13.475c.062,1.728.111,3.125.118,4.086v1.113A1.465,1.465,0,0,1,105.383,376.317Z" transform="translate(-74.028 -219.028)" fill="#263238"/>
      <path id="Path_306" data-name="Path 306" d="M103.121,393.308c0,.062-.691.1-1.811.463a8.061,8.061,0,0,0-5.441,6.471c-.173,1.134-.083,1.853-.145,1.86s-.069-.173-.111-.5a6.222,6.222,0,0,1,0-1.383,7.819,7.819,0,0,1,1.784-4.21,7.978,7.978,0,0,1,3.844-2.475,6.756,6.756,0,0,1,1.383-.235C102.941,393.266,103.121,393.28,103.121,393.308Z" transform="translate(-71.766 -236.018)" fill="#263238"/>
      <path id="Path_307" data-name="Path 307" d="M122.3,420.188a1.942,1.942,0,0,1-.083-.429c-.041-.318-.09-.726-.159-1.231-.124-1.113-.3-2.641-.512-4.522-.408-3.858-.961-9.119-1.569-14.927-.2-2.019-.4-3.975-.581-5.787l.173.159-11.062-.069-3.215-.048h-.857a1.275,1.275,0,0,1-.3,0,1.028,1.028,0,0,1,.3-.035h.857l3.215-.048,11.062-.062h.152v.159l.595,5.78c.567,5.814,1.079,11.062,1.459,14.947.166,1.881.3,3.415.4,4.528.041.5.069.92.1,1.238a2.073,2.073,0,0,1,.028.346Z" transform="translate(-74.41 -235.99)" fill="#263238"/>
      <path id="Path_308" data-name="Path 308" d="M110.364,425.836a4.407,4.407,0,0,1-.525.187l-1.514.484c-1.321.415-3.236,1-5.628,1.632a70.356,70.356,0,0,1-8.518,1.77,29.381,29.381,0,0,1-10.619-.5,45.4,45.4,0,0,1-5.324-1.493c-.837-.3-1.659-.608-2.454-.94-.394-.166-.788-.325-1.161-.525l-.567-.283-.532-.339a12.95,12.95,0,0,1-3.332-3.27,22.741,22.741,0,0,1-2.074-3.505,40.917,40.917,0,0,1-2.074-5.483c-.207-.691-.36-1.175-.449-1.528a4.051,4.051,0,0,1-.131-.546,3.091,3.091,0,0,1,.2.525l.512,1.507a46.1,46.1,0,0,0,2.185,5.406,23.15,23.15,0,0,0,2.074,3.457,12.686,12.686,0,0,0,3.277,3.166l.512.325.546.277c.359.194.754.346,1.148.512.788.325,1.6.629,2.441.92a45.079,45.079,0,0,0,5.282,1.48,29.569,29.569,0,0,0,10.5.532,75.25,75.25,0,0,0,8.5-1.687c2.392-.608,4.314-1.155,5.648-1.521l1.535-.422A2.761,2.761,0,0,1,110.364,425.836Z" transform="translate(-62.472 -241.638)" fill="#263238"/>
      <path id="Path_309" data-name="Path 309" d="M105.962,192.737a8.849,8.849,0,0,0-2.026-9.679,9.942,9.942,0,0,0-9.783-2.116,7.522,7.522,0,0,0-3.823,2.655,6.953,6.953,0,0,0,.387,8.082,10.184,10.184,0,0,0,7.557,3.671,19.358,19.358,0,0,0,8.421-1.742" transform="translate(-69.802 -170.332)" fill="#263238"/>
      <path id="Path_310" data-name="Path 310" d="M146.273,354.794c4.84,3.989,16.219,13.433,16.219,13.433l6.367-1.134-19.3-16.24a2.565,2.565,0,0,0-3.505.2h0a2.551,2.551,0,0,0,.221,3.74Z" transform="translate(-87.125 -222.739)" fill="#455a64"/>
      <path id="Path_311" data-name="Path 311" d="M144.7,351.859l-2.5-2.261a1.231,1.231,0,0,1-.118-1.7h0a1.231,1.231,0,0,1,1.763-.111L146.258,350Z" transform="translate(-86.032 -221.878)" fill="#455a64"/>
      <path id="Path_312" data-name="Path 312" d="M155.237,355.58a8.511,8.511,0,0,1-1.556,1.9,8.837,8.837,0,0,1-1.811,1.659,8.627,8.627,0,0,1,1.556-1.908A8.444,8.444,0,0,1,155.237,355.58Z" transform="translate(-89.141 -224.382)" fill="#263238"/>
      <path id="Path_313" data-name="Path 313" d="M153.167,362.045a12.24,12.24,0,0,1-1.929-1.258c-1.148-.83-2.7-2.033-4.342-3.457a7.232,7.232,0,0,1-2.033-2.344,3.339,3.339,0,0,1-.062-2.537,3.228,3.228,0,0,1,1.023-1.383c.325-.242.539-.318.546-.3s-.173.138-.456.408a3.3,3.3,0,0,0-.871,1.383,3.132,3.132,0,0,0,.124,2.316,7.28,7.28,0,0,0,1.97,2.205c1.625,1.417,3.146,2.648,4.259,3.526A18.3,18.3,0,0,1,153.167,362.045Z" transform="translate(-86.891 -222.896)" fill="#263238"/>
      <path id="Path_314" data-name="Path 314" d="M126.77,389.6c4.591-1.535,9.458-.5,14.042-2.04a12.114,12.114,0,0,0,4.335-2.136c1.459-1.293,2.2-3.194,3.36-4.757,3.457-4.674,9.949-5.642,15.742-6.222a11.752,11.752,0,0,1,4.051.055,3.962,3.962,0,0,1,2.945,2.544,2.438,2.438,0,0,1-1.825,3.077c1.272.055,2.157,1.341,2.392,2.593s0,2.537.194,3.8c.235,1.77,1.2,3.422,1.148,5.206-.076,2.441-2.074,4.452-4.356,5.393a28.015,28.015,0,0,1-7.163,1.383c-11.891,1.673-20.879,8.414-32.349,13.509" transform="translate(-81.394 -230.158)" fill="#ffbe9d"/>
      <path id="Path_315" data-name="Path 315" d="M189.895,385.231a1.632,1.632,0,0,0,2.337.477,2.5,2.5,0,0,0,.9-2.413,5.649,5.649,0,0,0-1.148-2.434,32.086,32.086,0,0,0-3.319-3.671L185,380.273Z" transform="translate(-99.366 -231.052)" fill="#ffbe9d"/>
      <path id="Path_316" data-name="Path 316" d="M185.74,382.905c0,.118-2.254-.069-4.971.353s-4.84,1.238-4.84,1.134a5,5,0,0,1,1.341-.622,18.99,18.99,0,0,1,3.457-.871,18.208,18.208,0,0,1,3.561-.187,5.073,5.073,0,0,1,1.452.194Z" transform="translate(-96.567 -232.75)" fill="#eb996e"/>
      <path id="Path_317" data-name="Path 317" d="M188.7,393.165c0,.111-1.887-.277-4.217-.207s-4.183.525-4.2.415A13.558,13.558,0,0,1,188.7,393.165Z" transform="translate(-97.909 -235.806)" fill="#eb996e"/>
      <path id="Path_318" data-name="Path 318" d="M191.1,386.38c-.062,0,0-.539-.1-1.383a7.253,7.253,0,0,0-1.113-3.07,6.7,6.7,0,0,0-.47-.643l-.1-.131.111-.111a3.346,3.346,0,0,0,.961-2.434,6.809,6.809,0,0,0-.159-1.1,1.763,1.763,0,0,1,.387,1.085,3.346,3.346,0,0,1-.94,2.7v-.242a7.378,7.378,0,0,1,.5.691A6.665,6.665,0,0,1,191.239,385a3.229,3.229,0,0,1-.138,1.383Z" transform="translate(-100.696 -231.151)" fill="#eb996e"/>
      <path id="Path_319" data-name="Path 319" d="M192.077,388.25l6.029,5.655.767,3.36-5.572-1.258A23.935,23.935,0,0,1,192.077,388.25Z" transform="translate(-101.542 -234.465)" fill="#455a64"/>
      <path id="Path_320" data-name="Path 320" d="M165.749,397.994c-.124.221-32.549,16.206-32.549,16.206v3.457l33.089-17.215,41.046-1.528V396.48Z" transform="translate(-83.379 -237.005)" fill="#f5f5f5"/>
      <path id="Path_321" data-name="Path 321" d="M133.2,419.2c.228-.152,35.8-3.36,35.8-3.36l38.336-15.9-41.046,1.549L133.2,418.7Z" transform="translate(-83.379 -238.073)" fill="#263238"/>
      <path id="Path_322" data-name="Path 322" d="M182.447,411.811c-.283-1.867,1.5-3.457,3.319-3.962s3.761-.3,5.6-.691a24.511,24.511,0,0,0,3.415-1.217c5.669-2.171,11.891-2.288,17.976-2.371a3.858,3.858,0,0,1-1.383,4.715,6.347,6.347,0,0,1-.187,4.549,14.25,14.25,0,0,1-2.537,3.892,8.7,8.7,0,0,1-2.994,2.51,9.892,9.892,0,0,1-3.844.595c-4.079.083-8.449.09-11.815-2.2-2.62-1.784-4.432-4.84-7.467-5.738h.691" transform="translate(-98.569 -239.194)" fill="#ffbe9d"/>
      <path id="Path_323" data-name="Path 323" d="M214.138,410.741a3.147,3.147,0,0,1-.774.076l-2.129.069c-1.8.041-4.28.069-7.017.083h-3.872a5.314,5.314,0,0,1-1.708-.256,2.662,2.662,0,0,1-1.238-.906,1.625,1.625,0,0,1-.318-1.224,1.576,1.576,0,0,1,.429-.85.864.864,0,0,1,.691-.3,1.569,1.569,0,0,0-.622.4,1.383,1.383,0,0,0,0,1.825,2.406,2.406,0,0,0,1.127.774,5.214,5.214,0,0,0,1.618.207h10.882l2.129.041A3.057,3.057,0,0,1,214.138,410.741Z" transform="translate(-103.09 -240.385)" fill="#eb996e"/>
      <path id="Path_324" data-name="Path 324" d="M207.521,416.459a5.617,5.617,0,0,1-.975.187c-.636.1-1.556.235-2.7.346a26.027,26.027,0,0,1-4.044.09,29.348,29.348,0,0,1-4.881-.816,38.091,38.091,0,0,0-8.829-1.085c-1.141,0-2.074.041-2.7.076a5.812,5.812,0,0,1-1,0,5.123,5.123,0,0,1,.989-.166,26.354,26.354,0,0,1,2.71-.194,34.27,34.27,0,0,1,8.912.989,31.962,31.962,0,0,0,4.84.844,29.322,29.322,0,0,0,4,0c1.141-.076,2.074-.173,2.7-.228a4.911,4.911,0,0,1,.982-.042Z" transform="translate(-98.56 -242.687)" fill="#eb996e"/>
      <path id="Path_325" data-name="Path 325" d="M205.359,420.982a3.311,3.311,0,0,1-.767.138c-.491.069-1.21.159-2.074.235a25.464,25.464,0,0,1-6.969-.228c-2.731-.519-4.84-1.915-6.478-2.558a16.13,16.13,0,0,0-2.731-.837,2.206,2.206,0,0,1,.774.042,9.381,9.381,0,0,1,2.074.56c1.694.6,3.8,1.936,6.457,2.44a28.8,28.8,0,0,0,6.914.325l2.074-.117A3.281,3.281,0,0,1,205.359,420.982Z" transform="translate(-99.779 -243.56)" fill="#eb996e"/>
      <g id="Group_20" data-name="Group 20" transform="translate(96.385 145.481)" opacity="0.2">
        <path id="Path_326" data-name="Path 326" d="M200.55,389.618a23.175,23.175,0,0,1,2.019-7.322,11.29,11.29,0,0,1,5.206-5.323,7.5,7.5,0,0,1,7.266.442,3.81,3.81,0,0,1,1.452,1.735,2.074,2.074,0,0,1-.353,2.143c-.761.816-2.074.691-3.166.636a13.343,13.343,0,0,0-12.327,7.425" transform="translate(-200.55 -376.24)"/>
      </g>
      <g id="Group_21" data-name="Group 21" transform="translate(29.106 124.803)" opacity="0.2">
        <path id="Path_327" data-name="Path 327" d="M110.478,378.285c2.765-4.957,1.77-11.172-.339-16.427s-5.254-10.094-6.865-15.528a95.809,95.809,0,0,0,4.736,32.494" transform="translate(-103.238 -346.33)"/>
      </g>
      <path id="Path_328" data-name="Path 328" d="M117.337,281.769s3.353,7.9,15.452,7.4,12.486-9.887,12.486-9.887l8.1,8.607-7.688,15.839-10.329,7.709-14.069-5.78-11.594-8.988Z" transform="translate(-76.123 -200.834)" fill="#8e2835"/>
      <g id="Group_22" data-name="Group 22" transform="translate(5.36 114.702)" opacity="0.5">
        <path id="Path_329" data-name="Path 329" d="M76.412,331.734c.124.152-1.452,1.632-3.533,3.3s-3.858,2.89-3.982,2.731,1.452-1.625,3.526-3.291S76.288,331.575,76.412,331.734Z" transform="translate(-68.89 -331.72)" fill="#fafafa"/>
      </g>
      <path id="Path_330" data-name="Path 330" d="M84.728,317.4c-.062.18-1.97-.36-4.038-1.639s-3.415-2.724-3.284-2.862,1.652,1.03,3.657,2.254S84.783,317.2,84.728,317.4Z" transform="translate(-66.156 -211.205)" fill="#fafafa"/>
      <path id="Path_331" data-name="Path 331" d="M100.161,320.748c.166.124-1.383,2.344-3.1,5.164s-3.056,5.171-3.236,5.082.85-2.606,2.627-5.462S100.016,320.623,100.161,320.748Z" transform="translate(-71.219 -213.63)" fill="#fafafa"/>
      <path id="Path_332" data-name="Path 332" d="M87.921,351.666c-.138.124-1.735-1.507-3.132-3.92s-2.033-4.6-1.853-4.667,1.1,1.957,2.475,4.3S88.08,351.528,87.921,351.666Z" transform="translate(-67.856 -220.524)" fill="#fafafa"/>
      <path id="Path_333" data-name="Path 333" d="M76.209,368.757c-.194,0-.6-1.728-.9-3.927s-.38-4-.187-4.031.6,1.735.9,3.934S76.389,368.73,76.209,368.757Z" transform="translate(-65.422 -225.993)" fill="#fafafa"/>
      <g id="Group_23" data-name="Group 23" transform="translate(19.504 137.997)" opacity="0.5">
        <path id="Path_334" data-name="Path 334" d="M89.37,373.348c-.173-.1.691-1.95,1.984-4.148s2.434-3.879,2.606-3.782-.691,1.957-1.984,4.148S89.543,373.424,89.37,373.348Z" transform="translate(-89.348 -365.414)" fill="#fafafa"/>
      </g>
      <path id="Path_335" data-name="Path 335" d="M72.293,390.807c-.145.131-1.687-1.383-3.187-3.567s-2.351-4.148-2.185-4.252,1.307,1.7,2.765,3.844S72.445,390.676,72.293,390.807Z" transform="translate(-62.916 -232.84)" fill="#fafafa"/>
      <path id="Path_336" data-name="Path 336" d="M91.251,391.426c.138.138-1.452,1.97-3.547,4.086s-3.913,3.726-4.058,3.588,1.445-1.97,3.547-4.093S91.106,391.288,91.251,391.426Z" transform="translate(-68.082 -235.443)" fill="#fafafa"/>
      <g id="Group_24" data-name="Group 24" transform="translate(10.334 173.735)" opacity="0.5">
        <path id="Path_337" data-name="Path 337" d="M81.08,424.2c-.131.138-1.666-1.134-3.063-3.139s-2.074-3.872-1.908-3.948,1.141,1.6,2.5,3.533S81.225,424.05,81.08,424.2Z" transform="translate(-76.084 -417.106)" fill="#fafafa"/>
      </g>
      <path id="Path_338" data-name="Path 338" d="M105.5,420.08c.1.173-1.6,1.327-3.8,2.579s-4.058,2.129-4.148,1.957,1.6-1.327,3.8-2.579S105.405,419.907,105.5,420.08Z" transform="translate(-72.377 -244.283)" fill="#fafafa"/>
      <path id="Path_339" data-name="Path 339" d="M116.759,408.646c-.124.145-1.735-1.085-3.2-3.1s-2.15-3.92-1.97-3.989,1.134,1.632,2.551,3.567S116.9,408.493,116.759,408.646Z" transform="translate(-76.7 -238.572)" fill="#fafafa"/>
      <path id="Path_340" data-name="Path 340" d="M132.925,354.215c.124.159-1.708,1.735-4.086,3.512s-4.4,3.09-4.522,2.931,1.715-1.728,4.093-3.505S132.807,354.063,132.925,354.215Z" transform="translate(-80.635 -223.957)" fill="#fafafa"/>
      <path id="Path_341" data-name="Path 341" d="M118.071,349.259c-.2,0-.166-1.915.069-4.231s.588-4.148.788-4.148.166,1.915-.069,4.231S118.265,349.294,118.071,349.259Z" transform="translate(-78.669 -219.845)" fill="#fafafa"/>
      <g id="Group_25" data-name="Group 25" transform="translate(42.817 106.004)" opacity="0.5">
        <path id="Path_342" data-name="Path 342" d="M131.539,326.365c-.111.159-2.254-1.161-4.6-3.173s-4-3.913-3.858-4.045,2,1.514,4.328,3.5S131.656,326.2,131.539,326.365Z" transform="translate(-123.068 -319.139)" fill="#fafafa"/>
      </g>
      <path id="Path_343" data-name="Path 343" d="M119.146,300.367c.152.131-1.383,2.164-3.374,4.542s-3.775,4.2-3.927,4.072,1.383-2.164,3.374-4.542S118.994,300.243,119.146,300.367Z" transform="translate(-76.785 -207.34)" fill="#fafafa"/>
      <g id="Group_26" data-name="Group 26" transform="translate(24.794 88.258)" opacity="0.5">
        <path id="Path_344" data-name="Path 344" d="M104.342,296.077c-.111.18-1.652-.615-3.664-1.286s-3.678-1-3.678-1.2,1.825-.194,3.927.519S104.446,295.911,104.342,296.077Z" transform="translate(-97 -293.472)" fill="#fafafa"/>
      </g>
      <path id="Path_345" data-name="Path 345" d="M145.186,307.447c-.187-.055.138-1.735.733-3.754a11.938,11.938,0,0,1,1.383-3.554,11.871,11.871,0,0,1-.691,3.754C146.051,305.912,145.38,307.509,145.186,307.447Z" transform="translate(-87.062 -207.271)" fill="#fafafa"/>
      <path id="Path_346" data-name="Path 346" d="M154.106,330.465c-.2,0-.27-1.659-.152-3.678s.373-3.644.567-3.637.27,1.659.152,3.678S154.3,330.478,154.106,330.465Z" transform="translate(-89.766 -214.373)" fill="#fafafa"/>
      <path id="Path_347" data-name="Path 347" d="M166.179,348.731c-.124.159-1.639-.85-3.381-2.254s-3.056-2.662-2.931-2.814,1.639.85,3.381,2.254S166.282,348.579,166.179,348.731Z" transform="translate(-91.606 -220.7)" fill="#fafafa"/>
      <path id="Path_348" data-name="Path 348" d="M181.819,326.884c.131.145-1.217,1.556-3.014,3.139s-3.36,2.765-3.457,2.6,1.217-1.556,3.014-3.139S181.688,326.732,181.819,326.884Z" transform="translate(-96.385 -215.522)" fill="#fafafa"/>
      <g id="Group_27" data-name="Group 27" transform="translate(73.822 98.01)" opacity="0.5">
        <path id="Path_349" data-name="Path 349" d="M174.528,313.054c-.111.166-1.818-.774-3.657-2.3s-3.084-3.035-2.945-3.166,1.59,1.113,3.4,2.606S174.638,312.889,174.528,313.054Z" transform="translate(-167.915 -307.576)" fill="#fafafa"/>
      </g>
      <path id="Path_350" data-name="Path 350" d="M193.33,295.2c.159.111-.691,1.542-2.157,2.924s-2.952,2.143-3.056,1.977,1.141-1.161,2.558-2.5S193.164,295.057,193.33,295.2Z" transform="translate(-100.326 -205.742)" fill="#fafafa"/>
      <g id="Group_28" data-name="Group 28" transform="translate(74.937 85.712)" opacity="0.5">
        <path id="Path_351" data-name="Path 351" d="M178.953,292.217c0,.194-2.233.035-4.84-.636s-4.653-1.569-4.584-1.756,2.164.408,4.764,1.058S178.98,292.009,178.953,292.217Z" transform="translate(-169.528 -289.79)" fill="#fafafa"/>
      </g>
      <g id="Group_29" data-name="Group 29" transform="translate(100.373 98.896)" opacity="0.5">
        <path id="Path_352" data-name="Path 352" d="M206.361,320.447c-.187-.041.242-2.765,1.231-5.96s2.129-5.7,2.309-5.628-.65,2.648-1.618,5.835S206.561,320.488,206.361,320.447Z" transform="translate(-206.318 -308.858)" fill="#fafafa"/>
      </g>
      <path id="Path_353" data-name="Path 353" d="M208.354,344.315c-.145.131-1.853-1.438-3.816-3.519s-3.457-3.872-3.284-4.01,1.846,1.438,3.809,3.519S208.5,344.177,208.354,344.315Z" transform="translate(-104.378 -218.579)" fill="#fafafa"/>
      <g id="Group_30" data-name="Group 30" transform="translate(109.199 124.263)" opacity="0.5">
        <path id="Path_354" data-name="Path 354" d="M219.372,355.658c-.2,0-.325-2.268-.277-5.061s.249-5.047.449-5.047.318,2.268.27,5.061S219.565,355.665,219.372,355.658Z" transform="translate(-219.085 -345.55)" fill="#fafafa"/>
      </g>
      <path id="Path_355" data-name="Path 355" d="M209.207,376.7c-.159.111-1.639-1.7-3.007-4.231s-2.074-4.764-1.9-4.84,1.182,2,2.537,4.487S209.373,376.582,209.207,376.7Z" transform="translate(-105.314 -228.1)" fill="#fafafa"/>
      <path id="Path_356" data-name="Path 356" d="M229.918,384.5c.145.138-.816,1.3-2.136,2.593s-2.51,2.219-2.648,2.074.823-1.307,2.143-2.6S229.78,384.358,229.918,384.5Z" transform="translate(-111.749 -233.304)" fill="#fafafa"/>
      <g id="Group_31" data-name="Group 31" transform="translate(83.378 126.672)" opacity="0.5">
        <path id="Path_357" data-name="Path 357" d="M181.767,357.348c-.18-.055.456-2.323,2.074-4.687s3.519-3.768,3.637-3.616-1.48,1.742-3.042,4.031S181.96,357.424,181.767,357.348Z" transform="translate(-181.737 -349.034)" fill="#fafafa"/>
      </g>
      <path id="Path_358" data-name="Path 358" d="M123.446,384.465c-.194-.048.145-2.074.754-4.591s1.272-4.473,1.466-4.425-.152,2.109-.761,4.6S123.632,384.513,123.446,384.465Z" transform="translate(-80.351 -230.515)" fill="#fafafa"/>
      <path id="Path_359" data-name="Path 359" d="M144.739,388.811c-.111.166-1.832-.767-3.844-2.074s-3.561-2.51-3.457-2.676,1.825.761,3.844,2.074S144.87,388.645,144.739,388.811Z" transform="translate(-84.685 -233.167)" fill="#fafafa"/>
      <path id="Path_360" data-name="Path 360" d="M145.437,371.194c-.166.111-.975-.809-1.811-2.074s-1.383-2.344-1.21-2.454.975.809,1.811,2.074S145.575,371.084,145.437,371.194Z" transform="translate(-86.213 -227.801)" fill="#fafafa"/>
      <path id="Path_361" data-name="Path 361" d="M155.989,377.242c.111.159-.615.864-1.625,1.576s-1.922,1.155-2.04,1,.615-.871,1.625-1.583S155.871,377.063,155.989,377.242Z" transform="translate(-89.277 -231.056)" fill="#fafafa"/>
      <g id="Group_32" data-name="Group 32" transform="translate(47.098 188.788)" opacity="0.5">
        <path id="Path_362" data-name="Path 362" d="M129.322,445.98c-.2-.062.124-1.632.408-3.567s.442-3.533.65-3.533.36,1.638.062,3.637S129.5,446.043,129.322,445.98Z" transform="translate(-129.26 -438.88)" fill="#fafafa"/>
      </g>
      <g id="Group_33" data-name="Group 33" transform="translate(59.129 181.042)" opacity="0.5">
        <path id="Path_363" data-name="Path 363" d="M151.922,436.887c-.173.1-1.486-1.887-2.931-4.425s-2.482-4.687-2.309-4.784,1.486,1.88,2.931,4.425S152.095,436.811,151.922,436.887Z" transform="translate(-146.663 -427.675)" fill="#fafafa"/>
      </g>
      <g id="Group_34" data-name="Group 34" transform="translate(74.341 182.568)" opacity="0.5">
        <path id="Path_364" data-name="Path 364" d="M176.986,429.888c.159.118-1.569,2.648-3.865,5.648s-4.286,5.33-4.445,5.213,1.576-2.648,3.872-5.648S176.834,429.763,176.986,429.888Z" transform="translate(-168.665 -429.883)" fill="#fafafa"/>
      </g>
      <g id="Group_35" data-name="Group 35" transform="translate(77.49 197.167)" opacity="0.5">
        <path id="Path_365" data-name="Path 365" d="M183.542,451.083c0,.194-2.261.691-5.109,1.1s-5.185.588-5.213.394,2.254-.691,5.109-1.106S183.514,450.882,183.542,451.083Z" transform="translate(-173.22 -450.999)" fill="#fafafa"/>
      </g>
      <path id="Path_366" data-name="Path 366" d="M189.261,437.448c-.2-.048,0-1.521.048-3.332s0-3.3.242-3.325.567,1.466.477,3.353S189.448,437.5,189.261,437.448Z" transform="translate(-100.654 -247.595)" fill="#fafafa"/>
      <path id="Path_367" data-name="Path 367" d="M150.531,450.67c-.069.173-1.943-.442-3.892-1.853s-3.139-2.973-2.994-3.09,1.528,1.162,3.415,2.5S150.614,450.476,150.531,450.67Z" transform="translate(-86.598 -252.202)" fill="#fafafa"/>
      <path id="Path_368" data-name="Path 368" d="M111.167,448.229c-.194-.048,0-1.632.512-3.526s1.023-3.4,1.217-3.353-.041,1.625-.519,3.526S111.361,448.277,111.167,448.229Z" transform="translate(-76.556 -250.853)" fill="#fafafa"/>
      <path id="Path_369" data-name="Path 369" d="M106.589,198.359c.041-.055.83.622,2.275,1.383a17.373,17.373,0,0,0,2.648,1.155,18.9,18.9,0,0,0,3.457.767,18.39,18.39,0,0,0,3.533.035,15.9,15.9,0,0,0,2.848-.525c1.59-.442,2.5-.92,2.537-.857a3.056,3.056,0,0,1-.629.366,6.533,6.533,0,0,1-.774.353,10.775,10.775,0,0,1-1.065.387,14.976,14.976,0,0,1-2.883.608,17.491,17.491,0,0,1-3.609,0,17.215,17.215,0,0,1-3.512-.816,15.142,15.142,0,0,1-2.669-1.244,8.708,8.708,0,0,1-.947-.615,6.5,6.5,0,0,1-.691-.525C106.762,198.552,106.569,198.379,106.589,198.359Z" transform="translate(-75.165 -175.857)" fill="#455a64"/>
      <path id="Path_370" data-name="Path 370" d="M124.636,207.5a3.539,3.539,0,0,1-.754.228c-.491.124-1.2.29-2.074.442a19.02,19.02,0,0,1-7.08.041,11.062,11.062,0,0,1-6.119-3.457,7.667,7.667,0,0,1-1.161-1.825,2.51,2.51,0,0,1-.249-.747,12.244,12.244,0,0,0,1.6,2.406,11.3,11.3,0,0,0,6,3.3,20.741,20.741,0,0,0,6.969.062c.892-.124,1.611-.249,2.074-.332A3.409,3.409,0,0,1,124.636,207.5Z" transform="translate(-75.354 -177.038)" fill="#455a64"/>
      <path id="Path_371" data-name="Path 371" d="M96.389,252.722a.693.693,0,0,1-.09-.1c-.048-.069-.138-.166-.235-.311a3.948,3.948,0,0,1-.546-1.383,6.326,6.326,0,0,1,1.514-5.137,13.136,13.136,0,0,1,2.9-2.441c1.134-.747,2.406-1.431,3.657-2.275a11.124,11.124,0,0,0,3.325-3.256,5.849,5.849,0,0,0,.83-2.281,7.052,7.052,0,0,0-.131-2.517,31.478,31.478,0,0,0-1.749-4.764,13.136,13.136,0,0,1-1.168-4.66,12.369,12.369,0,0,1,2.371-7.66,11.539,11.539,0,0,1,4.072-3.6l.774-.373.595-.207a2.874,2.874,0,0,1,.5-.145,3.1,3.1,0,0,1-.47.214l-.574.242-.754.394a11.808,11.808,0,0,0-3.934,3.616,12.265,12.265,0,0,0-2.247,7.5,12.824,12.824,0,0,0,1.161,4.535,31.342,31.342,0,0,1,1.777,4.84,7.557,7.557,0,0,1,.131,2.641,6.139,6.139,0,0,1-.878,2.42,11.414,11.414,0,0,1-3.457,3.346c-1.272.843-2.551,1.521-3.678,2.254a12.853,12.853,0,0,0-2.862,2.351,6.285,6.285,0,0,0-1.576,4.943,4.916,4.916,0,0,0,.747,1.8Z" transform="translate(-71.727 -179.951)" fill="#455a64"/>
      <path id="Path_372" data-name="Path 372" d="M121.265,253.736a1.992,1.992,0,0,1-.4-.228,3.264,3.264,0,0,1-.892-.968,4.632,4.632,0,0,1-.622-1.991,7.439,7.439,0,0,1,.3-2.765c.56-2.026,2.254-3.872,3.526-6.222a7.764,7.764,0,0,0,1.044-3.941,10.689,10.689,0,0,0-1.113-4.266c-1.314-2.765-3.332-4.992-4.729-7.3a15.313,15.313,0,0,1-1.632-3.457,8.428,8.428,0,0,1-.339-3.332,6.561,6.561,0,0,1,2.019-4.321,4.516,4.516,0,0,1,1.106-.691,2.075,2.075,0,0,1,.429-.152,6.679,6.679,0,0,0-1.445.968,6.582,6.582,0,0,0-1.853,4.238,8.172,8.172,0,0,0,.373,3.222,14.739,14.739,0,0,0,1.625,3.395c.691,1.127,1.549,2.254,2.4,3.457a24.8,24.8,0,0,1,2.371,3.879,10.772,10.772,0,0,1,1.141,4.418,8.144,8.144,0,0,1-1.1,4.1c-1.327,2.358-3.021,4.148-3.581,6.112a7.488,7.488,0,0,0-.346,2.662,4.694,4.694,0,0,0,.539,1.936,4.107,4.107,0,0,0,1.175,1.251Z" transform="translate(-78.184 -180.717)" fill="#455a64"/>
      <path id="Path_373" data-name="Path 373" d="M154.24,188.709a.542.542,0,0,1-.263-.111,6.225,6.225,0,0,1-.691-.436,8.214,8.214,0,0,1-1.984-2.219,24.5,24.5,0,0,1-1.915-3.968c-.318-.761-.691-1.556-1.079-2.337a14.394,14.394,0,0,0-1.521-2.282,15.618,15.618,0,0,0-7.992-5.151,21.226,21.226,0,0,0-3.975-.567,5.013,5.013,0,0,1,1.085-.062,14.516,14.516,0,0,1,2.952.38,15.348,15.348,0,0,1,8.206,5.171,14.707,14.707,0,0,1,1.569,2.344c.422.8.754,1.611,1.065,2.378a27.349,27.349,0,0,0,1.825,3.962,9.057,9.057,0,0,0,1.86,2.24C153.915,188.5,154.261,188.681,154.24,188.709Z" transform="translate(-83.879 -167.591)" fill="#455a64"/>
      <path id="Path_374" data-name="Path 374" d="M164,188.319a1.271,1.271,0,0,1-.373-.041,5.342,5.342,0,0,1-1.037-.27,8.988,8.988,0,0,1-3.3-2.136,19.967,19.967,0,0,1-3.415-4.729,36.546,36.546,0,0,0-3.761-5.987,11.822,11.822,0,0,0-5.87-3.657,22.919,22.919,0,0,0-5.7-.767c-1.652-.035-2.987,0-3.913.069l-1.065.041a1.381,1.381,0,0,1-.373,0,1.314,1.314,0,0,1,.366-.062l1.065-.111c.92-.076,2.261-.187,3.92-.18a22.123,22.123,0,0,1,5.794.691,11.974,11.974,0,0,1,6.049,3.747,34.024,34.024,0,0,1,3.775,6.063,20.424,20.424,0,0,0,3.312,4.7,9.243,9.243,0,0,0,3.166,2.192C163.494,188.216,164.006,188.278,164,188.319Z" transform="translate(-83.993 -167.256)" fill="#455a64"/>
      <path id="Path_375" data-name="Path 375" d="M195.377,246.387c-.035,0,.18-.491.408-1.383a13.205,13.205,0,0,0,.415-3.9,13.067,13.067,0,0,0-1.466-5.586,13.343,13.343,0,0,0-1.977-2.8c-.8-.892-1.721-1.735-2.641-2.62a23.285,23.285,0,0,1-2.565-2.765,17.153,17.153,0,0,1-1.846-2.98,17.554,17.554,0,0,1-1.632-5.683,16.032,16.032,0,0,1,.041-3.989,8.463,8.463,0,0,1,.187-1.065,1.438,1.438,0,0,1,.1-.366c.035,0-.076.519-.152,1.452a17.422,17.422,0,0,0,.069,3.934,18.273,18.273,0,0,0,1.68,5.572,17.367,17.367,0,0,0,1.825,2.911,24.266,24.266,0,0,0,2.53,2.7c.926.885,1.846,1.735,2.662,2.648a13.358,13.358,0,0,1,2,2.883,13.094,13.094,0,0,1,1.431,5.731,12.59,12.59,0,0,1-.532,3.948,7.1,7.1,0,0,1-.38,1.016A1.251,1.251,0,0,1,195.377,246.387Z" transform="translate(-99.048 -180.454)" fill="#455a64"/>
      <path id="Path_376" data-name="Path 376" d="M90.92,192.675a2.565,2.565,0,0,1,.09-.691,6.8,6.8,0,0,1,.657-1.721A7.4,7.4,0,0,1,102.41,187.7a6.478,6.478,0,0,1,1.383,1.238,2.075,2.075,0,0,1,.387.567,12.673,12.673,0,0,0-1.915-1.59,7.349,7.349,0,0,0-10.37,2.482,12.838,12.838,0,0,0-.975,2.282Z" transform="translate(-70.329 -172.158)" fill="#455a64"/>
      <path id="Path_377" data-name="Path 377" d="M100.61,196.974a6.007,6.007,0,0,1,.194-1.569,6.962,6.962,0,0,1,1.639-3.457,3.685,3.685,0,0,1,3.664-.926,2.282,2.282,0,0,1,.982.691c.173.221.221.373.207.38a3.229,3.229,0,0,0-1.265-.809,3.554,3.554,0,0,0-3.332.94,7.515,7.515,0,0,0-1.645,3.27A8.461,8.461,0,0,1,100.61,196.974Z" transform="translate(-73.32 -173.546)" fill="#455a64"/>
      <path id="Path_378" data-name="Path 378" d="M112.082,185.05a29.9,29.9,0,0,0-1.818,3.768,32.718,32.718,0,0,0-.94,4.072,10.875,10.875,0,0,1,2.765-7.84Z" transform="translate(-76.005 -171.751)" fill="#8e2835"/>
    </g>
    <g id="freepik--speech-bubble--inject-164" transform="translate(175.912 167.302)">
      <path id="Path_379" data-name="Path 379" d="M273.3,208.47a2.15,2.15,0,1,0,2.15-2.15A2.15,2.15,0,0,0,273.3,208.47Z" transform="translate(-241.393 -183.304)" fill="#455a64"/>
      <circle id="Ellipse_3" data-name="Ellipse 3" cx="2.15" cy="2.15" r="2.15" transform="translate(23.293 23.016)" fill="#455a64"/>
      <path id="Path_380" data-name="Path 380" d="M248.292,207.389a2.15,2.15,0,1,0,2.938-.788A2.15,2.15,0,0,0,248.292,207.389Z" transform="translate(-233.586 -183.302)" fill="#455a64"/>
      <path id="Path_381" data-name="Path 381" d="M252.461,173.065a1.88,1.88,0,0,0-.436,0l-1.279.035a7.672,7.672,0,0,0-.94.041l-1.127.159-1.314.187-1.473.366a23.866,23.866,0,0,0-7.093,3.1,25.179,25.179,0,0,0-11.553,18.909,25.878,25.878,0,0,0-.069,3.457,15.083,15.083,0,0,0,.111,1.763l.27,1.777a25.476,25.476,0,0,0,2.392,7.017,27.206,27.206,0,0,0,4.584,6.3,26.376,26.376,0,0,0,6.6,4.743,23.99,23.99,0,0,0,8.034,2.454,17.138,17.138,0,0,0,2.15.187,20.527,20.527,0,0,0,2.164,0,25.793,25.793,0,0,0,4.349-.546,25.407,25.407,0,0,0,8.621-3.6h-.263l8.808,3.54.525.207-.152-.539c-.885-3.236-1.756-6.381-2.586-9.423l-.048.235a25.2,25.2,0,0,0,4.7-10.765,22.953,22.953,0,0,0,.346-5.531,17.532,17.532,0,0,0-.256-2.648c-.062-.436-.131-.864-.194-1.293s-.214-.83-.311-1.244a25.207,25.207,0,0,0-9.831-14.332,24.038,24.038,0,0,0-5.849-3.083l-1.314-.47-1.251-.318-1.148-.283c-.366-.076-.691-.111-1.051-.159-.691-.09-1.251-.2-1.763-.228l-1.3-.041h-.788l.788.062,1.286.083c.5.041,1.085.173,1.749.27a25.055,25.055,0,0,1,20.05,18.584c.1.408.221.809.3,1.224s.124.843.194,1.265a17.977,17.977,0,0,1,.228,2.606,22.388,22.388,0,0,1-.353,5.4,24.889,24.889,0,0,1-4.66,10.585l-.076.1.035.131q1.244,4.563,2.565,9.423l.373-.332-8.8-3.547-.138-.055-.131.083a24.889,24.889,0,0,1-8.455,3.554,25.291,25.291,0,0,1-4.245.539,18.1,18.1,0,0,1-2.122-.041,16.36,16.36,0,0,1-2.074-.173,23.679,23.679,0,0,1-7.868-2.406A24.6,24.6,0,0,1,230.406,209.6a24.89,24.89,0,0,1-2.392-6.858c-.09-.588-.18-1.161-.263-1.742s-.076-1.155-.124-1.728a26.176,26.176,0,0,1,.055-3.381,24.889,24.889,0,0,1,11.255-18.667,23.963,23.963,0,0,1,7.01-3.16l1.452-.387,1.307-.214,1.113-.187a8.911,8.911,0,0,0,.933-.069l1.272-.09A2.643,2.643,0,0,0,252.461,173.065Z" transform="translate(-227.149 -173.03)" fill="#455a64"/>
    </g>
  </g>
</svg>
