<svg xmlns="http://www.w3.org/2000/svg" width="25.116" height="23.501" viewBox="0 0 25.116 23.501">
  <path id="Icon_ionic-ios-settings" data-name="Icon ionic-ios-settings" d="M27.543,16.247a3.037,3.037,0,0,1,2.073-2.821,11.572,11.572,0,0,0-1.55-3.494,3.468,3.468,0,0,1-1.315.263,3.354,3.354,0,0,1-2.283-.881A2.883,2.883,0,0,1,23.8,5.95,13.27,13.27,0,0,0,20.073,4.5a3.314,3.314,0,0,1-6.031,0,13.311,13.311,0,0,0-3.735,1.45,2.874,2.874,0,0,1-.667,3.365,3.4,3.4,0,0,1-3.6.618,11.824,11.824,0,0,0-1.544,3.5,2.957,2.957,0,0,1,.007,5.641,11.572,11.572,0,0,0,1.55,3.494,3.454,3.454,0,0,1,1.308-.257,3.354,3.354,0,0,1,2.283.881,2.883,2.883,0,0,1,.667,3.359A13.389,13.389,0,0,0,14.049,28a3.308,3.308,0,0,1,6.017,0,13.311,13.311,0,0,0,3.735-1.45,2.885,2.885,0,0,1,.667-3.359,3.33,3.33,0,0,1,2.283-.881,3.43,3.43,0,0,1,1.308.257,11.64,11.64,0,0,0,1.55-3.494A3.05,3.05,0,0,1,27.543,16.247ZM17.117,21.136a5.071,5.071,0,0,1-5.233-4.895,5.071,5.071,0,0,1,5.233-4.895,5.071,5.071,0,0,1,5.233,4.895A5.071,5.071,0,0,1,17.117,21.136Z" transform="translate(-4.5 -4.5)"/>
</svg>
