<svg xmlns="http://www.w3.org/2000/svg" width="9.6" height="10.971" viewBox="0 0 9.6 10.971">
  <path id="Icon_metro-attachment" data-name="Icon metro-attachment" d="M10.325,5.432l-.7-.7L6.15,8.216A1.476,1.476,0,0,0,8.238,10.3l4.176-4.175a2.46,2.46,0,1,0-3.48-3.479L4.549,7.033l-.009.009a3.431,3.431,0,0,0,4.853,4.852l.009-.009h0L12.4,8.893l-.7-.7L8.706,11.189,8.7,11.2a2.447,2.447,0,0,1-3.461-3.46l.01-.009h0L9.63,3.345a1.476,1.476,0,0,1,2.088,2.087L7.542,9.607a.492.492,0,0,1-.7-.7l3.48-3.48Z" transform="translate(-3.535 -1.928)" fill="#8e2835"/>
</svg>
