<svg xmlns="http://www.w3.org/2000/svg" width="18.169" height="16.014" viewBox="0 0 18.169 16.014">
  <path id="Icon_awesome-comment" data-name="Icon awesome-comment" d="M8.58,2.25C3.841,2.25,0,5.37,0,9.221A6.187,6.187,0,0,0,1.91,13.6,8.526,8.526,0,0,1,.074,16.812a.266.266,0,0,0-.05.292.262.262,0,0,0,.245.161A7.664,7.664,0,0,0,4.98,15.542a10.221,10.221,0,0,0,3.6.65c4.739,0,8.58-3.12,8.58-6.971S13.319,2.25,8.58,2.25Z" transform="translate(0.51 -1.75)" fill="none" stroke="#000" stroke-width="1"/>
</svg>
