<svg xmlns="http://www.w3.org/2000/svg" width="34.57" height="22.467" viewBox="0 0 34.57 22.467">
  <g id="Icon_ionic-ios-people" data-name="Icon ionic-ios-people" transform="translate(-2.215 -7.748)">
    <path id="Path_1456" data-name="Path 1456" d="M26.1,25.034c-.862-.308-2.271-.323-2.895-.562a4.09,4.09,0,0,1-1.34-.624,8.278,8.278,0,0,1-.223-2.194,3.545,3.545,0,0,0,.762-1.078,11.98,11.98,0,0,0,.37-2.117s.508.216.708-.8c.169-.878.493-1.34.408-1.986s-.447-.493-.447-.493a5.765,5.765,0,0,0,.447-2.88,4.608,4.608,0,0,0-4.974-4.55,4.623,4.623,0,0,0-4.982,4.55,5.851,5.851,0,0,0,.439,2.88s-.362-.154-.447.493.231,1.109.408,1.986c.2,1.024.708.8.708.8a12.1,12.1,0,0,0,.37,2.117,3.545,3.545,0,0,0,.762,1.078,8.278,8.278,0,0,1-.223,2.194,3.936,3.936,0,0,1-1.34.616c-.616.239-2.025.269-2.895.577a5.434,5.434,0,0,0-3.526,5.174H29.619A5.423,5.423,0,0,0,26.1,25.034Z" transform="translate(0.568)" fill="#b2b2b2"/>
    <path id="Path_1457" data-name="Path 1457" d="M10.569,20.955a5.227,5.227,0,0,0,2.572-.716c-1.193-1.809-.547-3.919-.793-5.89a3.248,3.248,0,0,0-3.6-3.141H8.721a3.258,3.258,0,0,0-3.565,3.141c-.246,1.963.439,4.312-.785,5.89a4.837,4.837,0,0,0,2.579.639h0a3.9,3.9,0,0,1-.077,1.293,1.944,1.944,0,0,1-.924.423,17.864,17.864,0,0,0-1.994.554,3.242,3.242,0,0,0-1.74,2.864H8.4a5.531,5.531,0,0,1,2.464-2.294,5.17,5.17,0,0,1,1.9-.4s.293-.462-.67-.639a6.563,6.563,0,0,1-1.478-.516C10.469,21.995,10.569,20.955,10.569,20.955Z" transform="translate(0 0.329)" fill="#b2b2b2"/>
    <path id="Path_1458" data-name="Path 1458" d="M26.379,20.955a5.227,5.227,0,0,1-2.572-.716c1.193-1.809.547-3.919.793-5.89a3.248,3.248,0,0,1,3.6-3.141h.031a3.258,3.258,0,0,1,3.565,3.141c.246,1.963-.439,4.312.785,5.89A4.837,4.837,0,0,1,30,20.878h0a3.9,3.9,0,0,0,.077,1.293A1.944,1.944,0,0,0,31,22.6a17.864,17.864,0,0,1,1.994.554,3.242,3.242,0,0,1,1.74,2.864H28.551a5.531,5.531,0,0,0-2.464-2.294,5.17,5.17,0,0,0-1.9-.4s-.293-.462.67-.639a6.563,6.563,0,0,0,1.478-.516C26.48,21.995,26.379,20.955,26.379,20.955Z" transform="translate(2.052 0.329)" fill="#b2b2b2"/>
  </g>
</svg>
